<?xml version="1.0" standalone="no"?>
<!DOCTYPE svg PUBLIC "-//W3C//DTD SVG 20010904//EN"
 "http://www.w3.org/TR/2001/REC-SVG-20010904/DTD/svg10.dtd">
<svg version="1.0" xmlns="http://www.w3.org/2000/svg"
 width="4096.000000pt" height="2259.000000pt" viewBox="0 0 4096.000000 2259.000000"
 preserveAspectRatio="xMidYMid meet">
<metadata>
Created by potrace 1.15, written by Peter Selinger 2001-2017
</metadata>
<g transform="translate(0.000000,2259.000000) scale(0.100000,-0.100000)"
fill="#000000" stroke="none">
<path d="M0 11295 l0 -11295 20480 0 20480 0 0 11295 0 11295 -20480 0 -20480
0 0 -11295z m12220 4255 l0 -340 -30 0 -30 0 0 340 0 340 30 0 30 0 0 -340z
m-1235 -327 c44 -65 119 -175 167 -245 49 -70 88 -131 88 -135 0 -4 -11 -15
-24 -25 -22 -16 -23 -15 -53 30 -17 26 -58 85 -90 132 -212 306 -227 332 -208
346 10 8 24 14 30 14 6 0 47 -53 90 -117z m2578 106 c12 -7 23 -13 25 -15 7
-5 -329 -499 -341 -501 -7 -2 -20 4 -31 12 -18 13 -9 28 149 265 92 137 170
250 172 250 2 0 14 -5 26 -11z m-1187 -609 c519 -59 1003 -403 1239 -879 99
-200 165 -453 165 -633 0 -71 -2 -78 -20 -78 -17 0 -20 7 -20 43 0 57 -26 247
-44 322 -106 438 -415 824 -826 1030 -518 260 -1149 204 -1620 -143 -107 -79
-285 -262 -356 -367 -151 -221 -251 -496 -269 -735 -9 -134 -13 -150 -36 -150
-18 0 -19 5 -14 83 15 237 64 425 162 622 140 280 384 538 656 693 157 90 404
172 575 192 97 11 314 11 408 0z m-2172 -517 c162 -129 150 -117 137 -142 -7
-11 -18 -21 -25 -21 -19 0 -276 208 -276 223 0 15 20 37 33 37 5 0 64 -44 131
-97z m2106 -8 c0 -57 4 -95 10 -95 6 0 10 -15 10 -34 0 -19 5 -38 10 -41 6 -3
10 -15 10 -26 0 -10 5 -19 10 -19 6 0 10 -28 10 -65 0 -51 3 -65 15 -65 11 0
15 -12 15 -50 0 -27 5 -50 10 -50 6 0 10 -13 10 -30 0 -20 5 -30 15 -30 13 0
15 -132 17 -1107 l3 -1108 48 -3 47 -3 0 1055 0 1056 70 0 70 0 0 -34 c0 -28
4 -35 23 -38 16 -2 23 -11 25 -30 3 -22 9 -28 28 -28 21 0 24 -5 24 -35 l0
-35 75 0 75 0 0 30 c0 27 3 30 30 30 25 0 30 4 30 25 0 20 5 25 25 25 23 0 25
4 25 45 l0 45 70 0 70 0 0 -250 0 -250 40 0 40 0 0 -70 c0 -40 4 -70 10 -70 6
0 10 12 10 27 0 20 16 43 57 85 l57 58 85 0 85 0 58 -57 c37 -37 58 -66 58
-81 0 -12 7 -25 15 -28 8 -4 15 -15 15 -25 0 -10 7 -19 15 -19 13 0 15 -121
15 -1026 l0 -1027 -137 -221 c-75 -122 -164 -266 -198 -321 -70 -113 -333
-538 -355 -572 l-15 -23 -830 0 -830 0 -95 121 c-95 121 -330 437 -395 533
-19 28 -47 69 -63 91 -62 88 -102 144 -165 236 l-67 97 0 1100 0 1100 115 27
115 27 0 174 c0 167 1 174 20 174 19 0 20 -7 20 -170 l0 -170 105 0 105 0 0
-231 0 -232 35 6 c20 3 62 -2 100 -12 l65 -18 0 178 0 179 30 0 c28 0 30 3 30
38 1 33 7 42 55 81 44 34 55 49 55 72 0 16 5 29 11 29 7 0 9 24 7 70 -3 61 -1
70 15 70 15 0 17 -11 17 -98 l0 -99 55 -39 c53 -38 55 -40 55 -86 0 -47 1 -48
30 -48 l30 0 0 -260 0 -260 70 0 70 0 0 550 c0 360 3 550 10 550 6 0 10 9 10
20 0 17 7 20 40 20 33 0 40 -3 40 -20 0 -10 6 -23 14 -27 8 -4 16 -21 18 -38
l3 -30 98 -3 97 -3 0 145 c0 119 3 145 15 150 11 4 15 22 15 76 0 40 4 70 10
70 6 0 10 27 10 60 0 45 4 62 15 66 8 4 15 17 15 29 0 13 5 27 10 30 6 3 10
19 10 36 0 19 5 29 15 29 12 0 15 17 15 95 0 88 1 95 20 95 19 0 20 -7 20 -95z
m1818 -26 c8 -12 10 -25 5 -30 -5 -5 -69 -51 -143 -104 l-134 -94 -17 26 c-17
25 -17 28 -1 39 139 101 259 183 267 184 6 0 16 -10 23 -21z m10292 -1254 l0
-685 -145 0 -145 0 0 678 c0 373 3 682 7 685 3 4 69 7 145 7 l138 0 0 -685z
m3500 434 l0 -251 56 51 c72 66 130 91 227 98 288 21 504 -225 483 -552 -16
-258 -159 -435 -386 -477 -115 -22 -234 12 -332 94 l-48 39 0 -61 0 -61 -142
3 -143 3 -3 670 c-1 369 0 676 3 683 3 9 42 12 145 12 l140 0 0 -251z m-11972
180 c102 -27 272 -115 272 -141 0 -10 -140 -213 -146 -212 -3 1 -38 20 -78 43
-209 120 -427 101 -426 -37 1 -73 41 -97 273 -166 187 -55 260 -90 326 -154
71 -69 94 -138 89 -262 -4 -109 -29 -175 -92 -247 -78 -89 -258 -149 -417
-140 -164 10 -308 59 -439 147 -90 61 -90 54 1 163 44 53 85 97 91 97 6 0 31
-15 57 -34 132 -96 291 -136 417 -105 74 19 119 90 94 150 -19 44 -70 73 -195
110 -279 81 -321 98 -397 167 -134 121 -128 380 13 521 54 55 169 109 252 121
85 11 218 2 305 -21z m6457 -3 c82 -26 174 -76 240 -133 l38 -31 -89 -104
c-48 -56 -89 -105 -91 -107 -2 -3 -16 5 -31 17 -58 47 -159 100 -211 112 -78
18 -186 9 -253 -23 -72 -32 -140 -103 -181 -187 -31 -62 -32 -70 -32 -185 0
-115 2 -123 32 -185 40 -81 107 -150 181 -187 52 -26 66 -28 167 -28 100 1
115 3 165 29 30 15 80 48 111 71 l56 44 92 -93 92 -93 -66 -61 c-132 -121
-300 -178 -498 -170 -159 7 -294 57 -409 154 -98 81 -183 221 -213 346 -19 83
-19 259 1 344 47 205 208 386 407 458 103 38 156 46 292 41 93 -3 138 -9 200
-29z m-1907 -168 l3 -128 114 0 115 0 0 -120 0 -120 -115 0 -116 0 3 -245 c3
-231 4 -245 23 -259 26 -20 101 -20 155 -1 23 8 44 15 46 15 2 0 4 -49 4 -110
0 -123 1 -122 -90 -156 -55 -20 -198 -23 -258 -5 -55 16 -119 73 -146 131 -20
42 -21 66 -24 338 l-3 292 -60 0 -59 0 0 120 0 120 60 0 60 0 0 130 0 131 143
-3 142 -3 3 -127z m-3275 -142 c51 -25 90 -59 117 -104 9 -15 12 -15 32 8 40
44 111 88 178 111 53 17 80 20 150 16 134 -7 214 -54 271 -159 l34 -63 3 -397
3 -398 -140 0 -140 0 -3 323 c-3 304 -4 324 -24 357 -30 52 -78 80 -136 80
-70 0 -113 -24 -146 -79 l-27 -46 -3 -317 -3 -318 -139 0 -139 0 -3 323 c-3
304 -4 324 -24 357 -62 105 -202 109 -278 7 -20 -27 -21 -43 -26 -355 l-5
-327 -142 -3 -143 -3 0 501 0 500 145 0 145 0 0 -62 0 -62 43 40 c59 56 68 62
128 85 79 29 196 22 272 -15z m2757 -116 l0 -150 -37 0 c-145 0 -252 -103
-273 -261 -5 -41 -10 -161 -10 -266 l0 -193 -140 0 -140 0 0 500 0 500 140 0
140 0 0 -91 0 -91 41 62 c60 89 144 139 237 140 l42 0 0 -150z m3506 139 c161
-29 321 -155 382 -301 116 -279 -18 -585 -306 -695 -88 -34 -228 -42 -325 -19
-157 37 -288 140 -358 281 -38 76 -41 90 -46 186 -8 162 31 278 132 388 71 78
198 146 305 164 51 9 158 7 216 -4z m3107 -23 c51 -25 92 -61 116 -103 8 -14
17 -10 64 33 71 65 146 95 255 102 69 4 93 1 145 -18 78 -29 110 -51 146 -103
58 -84 61 -114 61 -524 l0 -373 -140 0 -140 0 0 303 c0 336 -5 369 -61 423
-28 26 -37 29 -102 29 -86 0 -114 -16 -149 -85 -22 -44 -23 -55 -26 -357 l-3
-313 -139 0 -139 0 -3 323 c-3 304 -4 324 -24 357 -62 105 -202 109 -278 7
-20 -27 -21 -43 -26 -355 l-5 -327 -142 -3 -143 -3 0 501 0 500 145 0 145 0 0
-66 0 -67 20 26 c34 43 97 87 152 108 78 29 196 22 271 -15z m3992 4 c75 -21
195 -76 195 -89 0 -18 -103 -191 -113 -191 -7 0 -26 8 -42 18 -33 20 -130 55
-183 67 -104 22 -187 -61 -114 -114 16 -11 85 -41 154 -66 190 -69 255 -111
298 -195 19 -38 22 -55 18 -134 -3 -59 -10 -102 -21 -123 -82 -155 -292 -218
-522 -158 -63 17 -204 82 -242 112 l-23 18 61 93 c33 50 62 92 64 92 2 0 30
-16 62 -35 87 -51 164 -75 248 -75 78 0 107 14 120 58 12 41 -36 74 -170 116
-211 66 -289 123 -321 232 -31 107 3 231 83 305 103 95 268 120 448 69z
m-11745 4 c163 -38 259 -151 281 -327 5 -45 8 -212 7 -372 l-3 -290 -137 -3
-138 -3 0 51 0 50 -45 -34 c-88 -68 -228 -100 -334 -77 -64 14 -146 53 -182
87 -94 90 -107 299 -24 406 38 51 124 100 203 117 74 15 236 13 307 -4 33 -8
64 -14 69 -15 5 0 6 21 2 47 -7 50 -38 93 -86 118 -62 32 -228 26 -342 -12
l-54 -19 -36 108 -36 108 27 14 c33 18 128 45 189 56 82 14 263 11 332 -6z
m6132 -311 c3 -300 4 -320 24 -358 27 -52 72 -78 138 -79 74 -1 124 28 156 90
25 48 25 50 28 356 l4 308 139 0 139 0 0 -500 0 -500 -140 0 -140 0 0 65 c0
36 -2 65 -5 65 -3 0 -27 -20 -53 -45 -26 -25 -72 -58 -102 -73 -47 -23 -67
-27 -140 -27 -142 1 -243 60 -294 175 -41 92 -46 143 -46 501 l0 339 144 0
145 0 3 -317z m4210 0 c3 -286 5 -322 22 -355 53 -108 233 -110 293 -3 22 39
23 47 23 358 l0 317 145 0 145 0 0 -500 0 -501 -142 3 -143 3 -3 62 -3 61 -45
-43 c-24 -24 -70 -56 -102 -72 -49 -24 -69 -28 -142 -28 -72 0 -94 5 -145 28
-77 36 -117 75 -149 146 -39 88 -46 162 -46 514 l0 327 144 0 145 0 3 -317z
m368 -1500 l5 -242 40 41 c22 22 68 54 102 70 52 25 74 29 141 29 159 0 263
-69 312 -206 25 -70 25 -71 25 -440 l0 -370 -142 -3 -142 -3 -3 323 c-3 302
-4 325 -23 357 -35 59 -67 76 -145 76 -78 0 -110 -17 -145 -76 -19 -32 -20
-57 -25 -354 l-5 -320 -140 0 -140 0 -3 683 -2 683 142 -3 143 -3 5 -242z
m3298 115 l3 -128 -151 0 -150 0 0 130 0 131 148 -3 147 -3 3 -127z m-16731
78 c247 -53 426 -217 505 -464 29 -89 31 -287 4 -377 -67 -224 -233 -392 -456
-461 -109 -34 -296 -39 -400 -11 -259 69 -447 266 -494 517 -20 103 -20 166
-1 268 40 212 189 400 382 483 132 57 316 75 460 45z m5678 -35 c121 -40 204
-89 285 -171 127 -127 180 -260 180 -450 -1 -317 -182 -550 -493 -633 -76 -20
-106 -21 -392 -22 l-310 0 -3 653 -2 653 332 -3 c315 -4 337 -5 403 -27z
m5275 -101 l0 -130 -345 0 -345 0 0 -130 0 -130 305 0 306 0 -3 -127 -3 -128
-302 -3 -303 -2 0 -135 0 -135 350 0 351 0 -3 -127 -3 -128 -495 0 -495 0 -3
653 -2 652 495 0 495 0 0 -130z m-3140 -45 l0 -124 113 -3 112 -3 3 -122 3
-123 -116 0 -115 0 0 -234 c0 -283 -1 -282 102 -280 38 0 76 7 96 18 l33 17
-3 -123 -3 -122 -65 -23 c-134 -47 -306 -24 -378 50 -61 62 -65 91 -70 410
l-4 287 -59 0 -60 0 3 123 3 122 58 0 57 0 0 128 0 127 145 0 145 0 0 -125z
m4880 0 l0 -124 118 -3 117 -3 0 -120 0 -120 -117 -3 -118 -3 0 -220 c0 -256
6 -284 64 -294 32 -6 106 4 149 21 16 6 17 -2 15 -112 l-3 -118 -65 -23 c-139
-48 -316 -23 -380 55 -58 71 -63 99 -68 410 l-4 282 -54 0 -54 0 0 126 0 126
55 -4 55 -3 0 128 0 127 145 0 145 0 0 -125z m6670 0 l0 -124 118 -3 117 -3 3
-122 3 -123 -121 0 -120 0 0 -233 c0 -259 3 -271 65 -283 31 -5 105 5 148 22
16 6 17 -2 15 -112 l-3 -118 -65 -23 c-56 -21 -79 -23 -170 -20 -120 4 -168
22 -217 82 -50 61 -55 88 -60 398 l-6 287 -59 0 -59 0 3 123 3 122 58 3 57 3
0 124 0 125 145 0 145 0 0 -125z m-17850 -139 c110 -41 189 -115 245 -231 43
-90 59 -183 52 -304 -7 -117 -28 -185 -82 -272 -71 -110 -174 -178 -305 -198
-118 -19 -255 21 -332 97 l-38 36 0 -207 0 -207 -145 0 -145 0 0 650 0 651
143 -3 142 -3 3 -63 3 -64 50 47 c27 25 71 56 97 67 85 38 214 39 312 4z
m1049 19 c93 -10 177 -51 246 -119 99 -99 147 -227 149 -396 l1 -95 -342 -3
c-391 -3 -372 3 -310 -88 79 -119 269 -134 399 -33 20 16 40 29 43 29 6 0 111
-88 155 -129 13 -12 7 -21 -44 -68 -106 -95 -236 -139 -387 -130 -202 13 -356
111 -442 282 -66 133 -63 355 7 494 50 98 165 200 266 236 48 18 152 34 185
29 11 -1 44 -6 74 -9z m1269 0 c99 -13 197 -92 237 -191 18 -45 20 -78 23
-437 l3 -388 -143 3 -143 3 -5 325 c-5 316 -6 326 -28 361 -28 46 -75 69 -139
69 -65 0 -112 -27 -143 -81 l-25 -44 -3 -318 -3 -318 -142 3 -142 3 0 500 0
500 143 3 142 3 0 -66 c0 -36 1 -65 3 -65 2 0 24 20 50 45 26 24 66 54 89 66
43 22 125 39 163 33 11 -1 39 -5 63 -9z m8100 -25 c65 -28 123 -92 154 -169
22 -55 23 -65 23 -436 l0 -380 -142 -3 -143 -3 0 314 c0 305 -1 314 -22 357
-35 67 -66 85 -148 85 -78 0 -110 -17 -145 -76 -19 -32 -20 -57 -25 -354 l-5
-320 -140 0 -140 0 0 500 0 500 140 0 140 0 5 -62 5 -62 40 40 c102 103 260
130 403 69z m-4973 6 c116 -30 193 -92 239 -190 38 -80 47 -191 44 -526 l-3
-275 -135 0 -135 0 -5 49 -5 50 -36 -32 c-75 -66 -203 -98 -322 -82 -181 26
-283 141 -281 315 2 160 91 258 271 299 93 21 167 20 278 -3 50 -11 92 -18 93
-16 2 2 1 22 -3 45 -23 134 -200 177 -428 103 -27 -8 -51 -13 -53 -10 -5 5
-74 202 -74 211 0 6 101 44 150 57 116 30 303 32 405 5z m1811 14 c196 -25
310 -129 344 -312 6 -31 9 -191 8 -374 l-3 -319 -135 0 -135 0 -3 48 -3 47
-37 -30 c-144 -115 -402 -110 -520 11 -55 56 -75 104 -80 196 -10 181 78 288
270 327 115 24 235 17 351 -20 18 -6 19 -3 15 39 -7 56 -36 99 -85 123 -30 15
-60 19 -138 19 -90 -1 -122 -6 -241 -41 -19 -5 -24 4 -54 93 -18 54 -35 103
-37 109 -2 6 9 16 24 23 49 22 197 57 253 60 30 2 57 5 59 7 7 7 71 4 147 -6z
m7241 -19 c65 -21 183 -77 183 -87 0 -3 -25 -50 -55 -104 l-55 -98 -62 33
c-129 68 -260 81 -294 29 -37 -55 11 -96 176 -149 225 -73 310 -158 310 -307
0 -136 -70 -244 -187 -288 -117 -44 -275 -43 -408 0 -85 28 -218 107 -211 126
10 27 111 174 119 174 5 0 34 -15 66 -34 171 -100 361 -103 361 -6 0 42 -33
63 -178 109 -161 51 -237 95 -283 164 -33 50 -34 55 -34 147 1 113 23 169 89
226 51 44 81 60 148 79 71 20 231 13 315 -14z m1575 3 c139 -42 218 -121 254
-259 10 -37 14 -139 14 -393 l0 -343 -137 3 -138 3 -3 43 c-3 47 -11 51 -36
23 -29 -32 -117 -68 -191 -79 -132 -19 -251 14 -330 93 -63 63 -85 127 -81
229 7 158 96 254 272 291 93 20 171 18 279 -4 50 -11 91 -19 91 -18 1 1 -1 24
-6 50 -21 139 -186 172 -465 92 -18 -5 -24 6 -54 99 -19 58 -33 107 -30 110
30 27 162 65 264 77 94 10 231 2 297 -17z m1048 -2 c66 -19 128 -48 164 -75
18 -13 18 -17 -20 -90 -21 -42 -45 -86 -54 -97 l-16 -21 -76 35 c-145 66 -259
70 -286 11 -24 -53 5 -77 168 -135 189 -67 259 -112 303 -195 30 -58 29 -180
-3 -253 -93 -214 -452 -251 -727 -76 -29 19 -53 38 -53 44 0 5 26 49 58 98
l57 88 63 -37 c160 -93 347 -106 368 -25 13 55 -18 75 -197 131 -168 53 -236
97 -279 181 -21 41 -25 63 -24 129 0 92 21 143 83 208 41 44 73 63 151 89 70
23 224 18 320 -10z m1705 0 c62 -20 185 -78 185 -88 0 -12 -106 -194 -113
-194 -4 0 -34 13 -66 29 -61 31 -162 61 -205 61 -37 0 -83 -26 -91 -50 -17
-53 19 -78 190 -137 185 -63 269 -126 295 -219 17 -59 8 -178 -16 -229 -95
-202 -434 -240 -706 -80 -43 25 -78 48 -78 51 0 12 116 184 124 184 5 0 32
-14 60 -31 120 -74 284 -102 340 -58 35 27 35 70 0 98 -14 11 -79 37 -143 57
-205 64 -296 130 -321 236 -43 177 53 331 240 385 61 18 227 10 305 -15z
m-5745 -307 c4 -285 7 -324 23 -355 29 -56 72 -80 144 -80 70 0 115 24 147 80
20 33 21 55 26 355 l5 320 140 0 140 0 0 -500 0 -500 -142 -3 -143 -3 0 68 0
67 -47 -46 c-87 -84 -187 -116 -304 -97 -122 20 -206 86 -251 198 -22 54 -23
70 -26 425 -2 202 -1 374 2 382 5 12 32 14 143 12 l138 -3 5 -320z m2125 -180
l0 -500 -140 0 -140 0 -3 490 c-1 270 0 496 3 503 3 9 38 12 142 10 l138 -3 0
-500z m-9380 -1090 c61 -3 137 -8 169 -12 l59 -6 -6 -141 c-9 -201 -43 -519
-83 -786 -117 -759 -354 -1529 -675 -2187 -85 -175 -222 -426 -294 -538 -25
-38 -48 -77 -53 -85 -14 -30 -138 -208 -221 -320 -194 -260 -376 -462 -596
-659 -1000 -899 -2204 -1429 -3513 -1547 -242 -22 -775 -22 -1014 0 -886 80
-1741 356 -2466 793 -39 24 -78 43 -85 42 -34 -4 -48 2 -43 19 4 13 -11 27
-62 59 -100 62 -311 214 -447 322 -564 449 -1027 983 -1407 1621 -119 201
-287 550 -410 853 -98 244 -226 696 -248 877 -6 52 -15 128 -20 168 -17 126
-44 113 220 112 126 -1 232 -5 234 -9 3 -4 17 -79 31 -167 59 -356 221 -835
420 -1239 382 -777 933 -1441 1615 -1945 95 -71 209 -150 214 -150 3 0 8 20
12 45 5 36 10 45 27 45 18 0 19 -4 14 -63 l-6 -63 107 -66 c59 -36 130 -78
157 -93 28 -15 55 -31 60 -35 6 -4 73 -40 150 -79 761 -391 1586 -590 2440
-590 357 0 656 29 1075 104 203 37 625 157 845 242 318 121 682 299 903 439
29 19 54 34 57 34 8 0 283 188 375 256 137 103 271 213 379 312 51 48 98 88
102 90 5 2 68 67 141 145 546 585 959 1326 1256 2257 76 239 154 542 202 790
67 345 98 581 120 900 6 85 13 181 16 213 l6 58 67 -5 c36 -3 116 -8 176 -11z
m-10542 -129 c43 -18 67 -46 74 -90 7 -45 -11 -91 -48 -117 -27 -19 -43 -20
-720 -19 -763 0 -718 -3 -760 63 -35 56 -8 135 54 162 47 21 1352 22 1400 1z
m-40 -280 c45 -18 67 -56 67 -112 0 -39 -5 -51 -34 -80 l-34 -34 -648 0 c-625
0 -650 1 -678 19 -62 41 -75 117 -29 171 14 18 36 36 47 40 12 5 304 9 649 9
508 1 634 -2 660 -13z m-25 -288 c-6 -44 -233 -198 -387 -263 -62 -26 -67 -26
-245 -23 l-181 3 -105 53 c-178 92 -320 195 -320 234 0 17 29 18 621 18 l620
0 -3 -22z"/>
<path d="M28094 12996 c-135 -43 -206 -201 -160 -360 54 -184 273 -239 396
-99 53 61 74 126 68 217 -8 123 -72 211 -176 242 -54 17 -74 17 -128 0z"/>
<path d="M23275 12989 c-46 -13 -110 -73 -137 -127 -18 -38 -23 -63 -23 -132
1 -95 12 -124 73 -192 120 -133 341 -95 415 71 29 65 27 185 -5 247 -28 57
-98 120 -147 134 -43 12 -134 12 -176 -1z"/>
<path d="M18575 12656 c-77 -29 -110 -98 -81 -168 54 -128 315 -85 355 57 19
69 15 84 -25 101 -54 23 -199 28 -249 10z"/>
<path d="M15826 11334 c-183 -67 -293 -267 -252 -460 29 -141 104 -241 224
-297 61 -29 76 -32 162 -32 82 0 103 4 152 27 79 37 148 105 189 185 33 65 34
70 34 188 0 118 -1 123 -34 189 -47 91 -128 167 -212 195 -74 25 -202 28 -263
5z"/>
<path d="M21350 10949 l0 -391 168 4 c154 4 171 6 224 30 79 36 139 96 179
176 32 64 33 72 33 177 0 99 -3 116 -28 172 -30 65 -105 146 -164 177 -59 30
-154 46 -284 46 l-128 0 0 -391z"/>
<path d="M17326 11055 c-49 -17 -110 -77 -138 -133 -30 -63 -30 -191 0 -254
58 -119 173 -173 289 -134 134 45 202 222 143 379 -45 121 -176 184 -294 142z"/>
<path d="M18503 11061 c-47 -22 -97 -84 -113 -139 -5 -20 -8 -37 -6 -39 2 -2
96 -2 209 -1 l206 3 -18 53 c-10 29 -29 64 -42 79 -56 60 -157 79 -236 44z"/>
<path d="M22805 10718 c-42 -15 -72 -45 -85 -85 -15 -45 -5 -84 31 -119 29
-28 35 -29 122 -29 85 0 95 2 134 28 52 36 75 82 71 144 l-3 47 -50 13 c-59
15 -178 16 -220 1z"/>
<path d="M24685 10716 c-57 -21 -85 -60 -85 -117 0 -88 54 -125 175 -117 120
8 176 56 191 166 l6 50 -38 12 c-64 19 -203 22 -249 6z"/>
<path d="M33423 10718 c-105 -36 -124 -177 -29 -222 47 -22 150 -21 201 3 70
32 105 86 105 161 0 36 -3 40 -37 51 -53 15 -201 20 -240 7z"/>
<path d="M11512 9517 c-31 -33 -29 -80 4 -106 26 -21 34 -21 704 -21 l677 0
23 25 c30 32 30 83 -1 107 -20 17 -67 18 -703 18 l-683 0 -21 -23z"/>
<path d="M11579 9255 c-57 -31 -58 -109 -2 -134 17 -8 212 -11 649 -11 l625 0
24 25 c33 33 32 70 -4 106 l-29 29 -619 0 c-514 -1 -622 -3 -644 -15z"/>
<path d="M11695 8979 c12 -18 176 -122 274 -172 l95 -49 175 4 c171 3 178 4
231 32 75 38 238 140 275 170 l30 25 -543 1 c-378 0 -541 -3 -537 -11z"/>
</g>
</svg>
